<svg width="1121" height="39" viewBox="0 0 1121 39" fill="none" xmlns="http://www.w3.org/2000/svg">
<path d="M1120.5 28.4096H169.318C169.318 28.4096 83.3184 28.4096 71.3184 28.4096M71.3184 28.4096C61.0039 21.819 60.3184 1.00002 71.3184 1C82.3184 0.99998 82.3184 19.4096 71.3184 28.4096ZM71.3184 28.4096C60.3184 37.4096 24.3184 28.4096 24.3184 28.4096" stroke="#E0E4EA" stroke-width="2" stroke-dasharray="4 4"/>
<path d="M16.0626 15.6274L10.629 21.3916L6.76338 20.2282C6.00149 19.9989 5.17971 20.0817 4.47883 20.4583C3.77795 20.8349 3.25538 21.4744 3.02607 22.2363C2.79677 22.9982 2.87952 23.82 3.25611 24.5209C3.63271 25.2218 4.2723 25.7443 5.03419 25.9736L8.89979 27.1371L10.2493 34.9428C10.2731 35.0801 10.3347 35.208 10.4271 35.3123C10.5196 35.4166 10.6392 35.493 10.7727 35.5331L13.6454 36.3976C13.7516 36.4296 13.8636 36.4375 13.9733 36.4209C14.083 36.4043 14.1877 36.3636 14.2797 36.3017C14.3718 36.2398 14.4489 36.1582 14.5057 36.0629C14.5624 35.9675 14.5973 35.8608 14.6078 35.7504L15.2467 29.0473L16.9461 29.5587L17.8024 31.1538C17.8491 31.2406 17.9124 31.3173 17.9887 31.3796C18.0651 31.4419 18.1529 31.4885 18.2473 31.5168L21.12 32.3814C21.2376 32.417 21.3622 32.4232 21.4828 32.3994C21.6034 32.3755 21.7163 32.3224 21.8115 32.2447C21.9068 32.167 21.9815 32.0671 22.029 31.9537C22.0766 31.8404 22.0955 31.7171 22.0842 31.5947L21.7544 27.8729L24.0836 24.9515C24.1606 24.8557 24.2128 24.7424 24.2357 24.6216C24.2586 24.5009 24.2515 24.3763 24.215 24.2589C24.1785 24.1416 24.1136 24.035 24.0262 23.9486C23.9388 23.8621 23.8315 23.7985 23.7138 23.7633L20.8411 22.8987C20.7467 22.8702 20.6477 22.8606 20.5497 22.8704C20.4517 22.8802 20.3565 22.9092 20.2697 22.9558L18.6753 23.8133L16.9759 23.3018L20.1428 17.3596C20.195 17.2617 20.2248 17.1535 20.2301 17.0427C20.2354 16.9318 20.2161 16.8212 20.1735 16.7188C20.1309 16.6164 20.0661 16.5246 19.9838 16.4503C19.9015 16.3759 19.8037 16.3207 19.6975 16.2887L16.8248 15.4241C16.6914 15.3838 16.5495 15.3815 16.4148 15.4174C16.2802 15.4533 16.1582 15.5261 16.0626 15.6274ZM18.3891 17.4613L15.2222 23.4036C15.17 23.5014 15.1401 23.6097 15.1348 23.7205C15.1295 23.8313 15.1488 23.9419 15.1914 24.0444C15.234 24.1468 15.2988 24.2385 15.3811 24.3129C15.4634 24.3873 15.5612 24.4425 15.6674 24.4745L18.5401 25.3391C18.6344 25.3676 18.7334 25.3772 18.8315 25.3674C18.9295 25.3576 19.0246 25.3285 19.1114 25.2819L20.7059 24.4245L22.2204 24.8803L20.3946 27.17C20.2746 27.3205 20.2172 27.5115 20.2341 27.7032L20.4912 30.6257L18.9767 30.1699L18.1204 28.5748C18.0737 28.488 18.0104 28.4113 17.9341 28.349C17.8577 28.2868 17.7699 28.2401 17.6755 28.2118L14.8028 27.3472C14.6966 27.3153 14.5846 27.3074 14.4749 27.3239C14.3652 27.3405 14.2605 27.3813 14.1685 27.4432C14.0764 27.5051 13.9993 27.5867 13.9425 27.682C13.8858 27.7773 13.8509 27.8841 13.8404 27.9945L13.2015 34.6976L11.6484 34.2302L10.2989 26.4244C10.2751 26.2871 10.2135 26.1592 10.1211 26.0549C10.0287 25.9507 9.90901 25.8742 9.77556 25.8342L5.46649 24.5373C5.08555 24.4226 4.76575 24.1613 4.57745 23.8109C4.38915 23.4605 4.34778 23.0496 4.46243 22.6686C4.57708 22.2877 4.83837 21.9679 5.18881 21.7796C5.53925 21.5913 5.95014 21.5499 6.33108 21.6646L10.6402 22.9615C10.7735 23.0017 10.9155 23.004 11.0501 22.9681C11.1848 22.9322 11.3067 22.8595 11.4023 22.7581L16.836 16.9939L18.3891 17.4613Z" fill="#E0E4EA"/>
</svg>
