<svg width="1388" height="249" viewBox="0 0 1388 249" fill="none" xmlns="http://www.w3.org/2000/svg">
<path d="M1356 63.5378C1356 63.5378 1106.82 127.761 1060.71 45.9597C1030.5 -7.64009 1124.5 -19.1401 1138 45.9597C1159.6 150.143 878 191.86 679 174.86C591.679 167.4 478.519 162.242 366 177.416C306.876 185.39 150 296.86 -7 220.36" stroke="#B8D7FD" stroke-width="2" stroke-dasharray="4 4"/>
<path d="M1366.72 47.3471L1373.64 53.2102L1377.89 51.3938C1378.72 51.0358 1379.67 51.025 1380.51 51.364C1381.36 51.7029 1382.04 52.3637 1382.39 53.201C1382.75 54.0383 1382.76 54.9836 1382.42 55.8288C1382.08 56.6741 1381.42 57.35 1380.59 57.7081L1376.34 59.5245L1375.8 68.575C1375.79 68.7342 1375.74 68.8876 1375.64 69.018C1375.55 69.1483 1375.43 69.2506 1375.28 69.3131L1372.12 70.663C1372 70.7129 1371.88 70.7362 1371.75 70.7313C1371.62 70.7265 1371.5 70.6935 1371.39 70.6348C1371.28 70.5761 1371.18 70.4932 1371.1 70.392C1371.02 70.2908 1370.97 70.1739 1370.94 70.0496L1369.36 62.5069L1367.49 63.3055L1366.72 65.229C1366.68 65.3336 1366.62 65.429 1366.54 65.5096C1366.46 65.5901 1366.37 65.6544 1366.26 65.6986L1363.11 67.0485C1362.98 67.1041 1362.84 67.127 1362.7 67.1153C1362.56 67.1035 1362.42 67.0575 1362.3 66.9813C1362.19 66.905 1362.09 66.8009 1362.02 66.678C1361.95 66.5552 1361.91 66.4174 1361.91 66.2767L1361.81 62.0015L1358.79 58.9758C1358.69 58.8766 1358.62 58.7544 1358.57 58.62C1358.53 58.4856 1358.52 58.343 1358.55 58.2048C1358.58 58.0667 1358.64 57.9372 1358.73 57.8277C1358.81 57.7182 1358.93 57.6322 1359.06 57.5771L1362.22 56.2272C1362.32 56.1828 1362.43 56.1592 1362.54 56.1579C1362.66 56.1565 1362.77 56.1774 1362.87 56.2193L1364.8 56.9912L1366.66 56.1926L1362.3 49.8379C1362.23 49.7332 1362.18 49.6139 1362.16 49.4886C1362.14 49.3632 1362.15 49.2349 1362.19 49.113C1362.22 48.991 1362.28 48.8784 1362.37 48.7833C1362.45 48.6882 1362.56 48.613 1362.67 48.563L1365.83 47.2131C1365.98 47.1503 1366.14 47.1296 1366.3 47.1533C1366.45 47.1769 1366.6 47.2441 1366.72 47.3471ZM1364.31 49.7299L1368.67 56.0846C1368.74 56.1893 1368.79 56.3086 1368.81 56.434C1368.83 56.5593 1368.82 56.6876 1368.79 56.8095C1368.75 56.9315 1368.69 57.0441 1368.61 57.1392C1368.52 57.2343 1368.42 57.3095 1368.3 57.3595L1365.14 58.7094C1365.04 58.7538 1364.93 58.7774 1364.82 58.7787C1364.7 58.7801 1364.59 58.7592 1364.49 58.7173L1362.56 57.9454L1360.9 58.657L1363.27 61.0285C1363.42 61.1844 1363.51 61.3942 1363.52 61.6145L1363.6 64.9713L1365.26 64.2597L1366.03 62.3362C1366.08 62.2315 1366.14 62.1362 1366.22 62.0556C1366.3 61.975 1366.39 61.9108 1366.49 61.8665L1369.65 60.5166C1369.77 60.4668 1369.89 60.4435 1370.02 60.4483C1370.15 60.4532 1370.27 60.4862 1370.38 60.5449C1370.5 60.6036 1370.6 60.6865 1370.67 60.7877C1370.75 60.8889 1370.8 61.0058 1370.83 61.1301L1372.41 68.6727L1374.12 67.943L1374.66 58.8925C1374.67 58.7333 1374.72 58.5799 1374.81 58.4495C1374.9 58.3191 1375.03 58.2169 1375.18 58.1543L1379.91 56.1295C1380.33 55.9505 1380.66 55.6125 1380.83 55.1899C1381 54.7673 1380.99 54.2946 1380.81 53.876C1380.64 53.4573 1380.3 53.1269 1379.88 52.9574C1379.45 52.788 1378.98 52.7933 1378.56 52.9723L1373.83 54.9972C1373.68 55.06 1373.52 55.0807 1373.36 55.057C1373.2 55.0334 1373.05 54.9662 1372.93 54.8631L1366.02 49.0001L1364.31 49.7299Z" fill="#B8D7FD"/>
</svg>
