<svg width="20" height="21" viewBox="0 0 20 21" fill="none" xmlns="http://www.w3.org/2000/svg">
<path d="M10 10.3434C10.0001 10.4371 9.97902 10.5297 9.93845 10.6142C9.89788 10.6988 9.83881 10.7731 9.76562 10.8317L6.64062 13.3317C6.5765 13.383 6.5029 13.4211 6.42403 13.444C6.34516 13.4668 6.26256 13.4739 6.18095 13.4649C6.09933 13.4558 6.0203 13.4307 5.94837 13.3911C5.87644 13.3515 5.81302 13.2981 5.76172 13.234C5.71042 13.1699 5.67226 13.0963 5.6494 13.0174C5.62655 12.9385 5.61945 12.8559 5.62852 12.7743C5.63759 12.6927 5.66264 12.6137 5.70225 12.5418C5.74186 12.4698 5.79525 12.4064 5.85938 12.3551L8.37422 10.3434L5.85938 8.33167C5.79525 8.28037 5.74186 8.21694 5.70225 8.14501C5.66264 8.07308 5.63759 7.99405 5.62852 7.91244C5.61945 7.83082 5.62655 7.74822 5.6494 7.66935C5.67226 7.59048 5.71042 7.51688 5.76172 7.45276C5.81302 7.38864 5.87644 7.33525 5.94837 7.29564C6.0203 7.25603 6.09933 7.23097 6.18095 7.2219C6.26256 7.21284 6.34516 7.21993 6.42403 7.24278C6.5029 7.26564 6.5765 7.3038 6.64062 7.3551L9.76562 9.8551C9.83881 9.9137 9.89788 9.98801 9.93845 10.0725C9.97902 10.1571 10.0001 10.2496 10 10.3434ZM13.75 12.2184H10.625C10.4592 12.2184 10.3003 12.2842 10.1831 12.4014C10.0658 12.5187 10 12.6776 10 12.8434C10 13.0091 10.0658 13.1681 10.1831 13.2853C10.3003 13.4025 10.4592 13.4684 10.625 13.4684H13.75C13.9158 13.4684 14.0747 13.4025 14.1919 13.2853C14.3092 13.1681 14.375 13.0091 14.375 12.8434C14.375 12.6776 14.3092 12.5187 14.1919 12.4014C14.0747 12.2842 13.9158 12.2184 13.75 12.2184ZM18.125 4.71838V15.9684C18.125 16.2999 17.9933 16.6178 17.7589 16.8523C17.5245 17.0867 17.2065 17.2184 16.875 17.2184H3.125C2.79348 17.2184 2.47554 17.0867 2.24112 16.8523C2.0067 16.6178 1.875 16.2999 1.875 15.9684V4.71838C1.875 4.38686 2.0067 4.06892 2.24112 3.8345C2.47554 3.60008 2.79348 3.46838 3.125 3.46838H16.875C17.2065 3.46838 17.5245 3.60008 17.7589 3.8345C17.9933 4.06892 18.125 4.38686 18.125 4.71838ZM16.875 15.9684V4.71838H3.125V15.9684H16.875Z" fill="#266F8D"/>
</svg>
