<svg width="146" height="34" viewBox="0 0 146 34" fill="none" xmlns="http://www.w3.org/2000/svg">
<g clip-path="url(#clip0_6033_37312)">
<path d="M0 34H28.0406L44 0H36.9552C33.7391 0 30.6638 1.3378 28.4411 3.70469L0 34Z" fill="url(#paint0_linear_6033_37312)"/>
<path d="M0 34H28.0406L44 0H36.9552C33.7391 0 30.6638 1.3378 28.4411 3.70469L0 34Z" fill="url(#paint1_linear_6033_37312)"/>
<path d="M26.4388 18.0735H23.1731L20.2703 21.5522V18.0957H17.6055V21.6531V21.6773H20.2208V21.6955L23.1731 25.2327H26.4388L23.4527 21.6531L26.4388 18.0735Z" fill="white"/>
<path d="M30.0597 18.913L32.4054 16.1002V14.4113H30.5495L24.5654 21.5825V21.6249H27.7974V21.6229H32.4252V18.913H30.0597Z" fill="white"/>
</g>
<path d="M69.955 23.3444C68.8778 24.0575 67.4896 24.2522 65.7372 24.2522C63.9849 24.2522 62.5841 24.0575 61.5069 23.3318C60.2881 22.5277 59.8708 21.2027 59.8708 19.6198C59.8708 18.0369 60.2855 16.6992 61.5069 15.8951C62.5841 15.1821 63.9723 15 65.7246 15C67.4769 15 68.8778 15.1947 69.955 15.8951C71.1611 16.7119 71.591 18.0495 71.591 19.6198C71.591 21.19 71.1636 22.5277 69.955 23.3444ZM65.7372 16.7928C63.3224 16.7928 62.2199 17.4679 62.2199 19.5566C62.2199 21.6452 63.2971 22.4619 65.7246 22.4619C68.1521 22.4619 69.2419 21.7742 69.2419 19.6855C69.2419 17.5969 68.1647 16.7928 65.7372 16.7928Z" fill="#022841"/>
<path d="M83.6603 24.0701L78.469 18.0116H78.4311V24.0701H76.3298V15.1821H79.0026L84.0118 21.228H84.0623V15.1821H86.151V24.0701H83.6603Z" fill="#022841"/>
<path d="M95.6762 24.2522C94.4043 24.2522 93.1728 24.0701 92.2625 23.3318C91.198 22.4493 90.887 21.0864 90.887 19.6198C90.887 18.3605 91.2511 16.8054 92.6393 15.8698C93.7291 15.1441 95.13 15 96.6623 15C97.8432 15 99.024 15.0657 100.347 15.1568V16.9723C99.244 16.8939 97.828 16.8282 96.8039 16.8282C94.3006 16.8282 93.236 17.5817 93.236 19.6704C93.236 21.6047 93.9618 22.4999 95.9493 22.4999C96.7786 22.4999 97.6889 22.4215 98.5841 22.2925V20.7475H95.9366V19.0862H100.726V23.6656C99.1302 23.9892 97.4032 24.2497 95.6787 24.2497L95.6762 24.2522Z" fill="#022841"/>
<path d="M121.331 24.0701L120.371 22.1358H115.452L114.517 24.0701H112.039L116.605 15.1821H119.344L123.911 24.0701H121.329H121.331ZM117.93 17.1165H117.88L116.244 20.4517H119.566L117.93 17.1165Z" fill="#022841"/>
<path d="M128.131 24.0701V15.1821H130.427V24.0701H128.131Z" fill="#022841"/>
<path d="M142.703 24.0701L140.329 21.008C140.122 21.0206 139.902 21.0206 139.692 21.0206H138.225V24.0701H135.929V15.1821H140.251C141.99 15.1821 143.25 15.2605 144.104 15.8951C144.754 16.3756 145.05 17.0634 145.05 18.0495C145.05 19.1014 144.726 19.7892 144.026 20.2696C143.702 20.5023 143.298 20.659 142.832 20.7501L145.48 24.0727H142.703V24.0701ZM140.266 16.8813H138.228V19.3998H140.291C142.016 19.3998 142.719 19.1798 142.719 18.1153C142.719 16.9597 141.783 16.8813 140.266 16.8813Z" fill="#022841"/>
<path d="M52.2749 19.6526H49.4429L53.385 24.1106H56.2271L52.2749 19.6526Z" fill="#022841"/>
<path d="M52.2749 19.6577H49.4429L53.385 15.1998H56.2271L52.2749 19.6577Z" fill="#022841"/>
<path d="M49.3419 15.2225H47.0459V24.1106H49.3419V15.2225Z" fill="#022841"/>
<defs>
<linearGradient id="paint0_linear_6033_37312" x1="-16.4155" y1="54.969" x2="53.3705" y2="0.363478" gradientUnits="userSpaceOnUse">
<stop offset="0.395" stop-color="#2ABDBB"/>
<stop offset="0.91" stop-color="#232B65"/>
</linearGradient>
<linearGradient id="paint1_linear_6033_37312" x1="-16.4155" y1="54.969" x2="53.3705" y2="0.363478" gradientUnits="userSpaceOnUse">
<stop offset="0.25" stop-color="#2ABDBB"/>
<stop offset="0.91" stop-color="#232B65"/>
</linearGradient>
<clipPath id="clip0_6033_37312">
<rect width="44" height="34" fill="white"/>
</clipPath>
</defs>
</svg>
