<svg width="1121" height="39" viewBox="0 0 1121 39" fill="none" xmlns="http://www.w3.org/2000/svg">
<path d="M1120.5 28.4096H169.318C169.318 28.4096 83.3184 28.4096 71.3184 28.4096M71.3184 28.4096C61.0039 21.819 60.3184 1.00002 71.3184 1C82.3184 0.99998 82.3184 19.4096 71.3184 28.4096ZM71.3184 28.4096C60.3184 37.4096 24.3184 28.4096 24.3184 28.4096" stroke="#3A3F51" stroke-width="2" stroke-dasharray="4 4"/>
<path d="M16.0623 15.6274L10.6287 21.3916L6.76304 20.2282C6.00115 19.9989 5.17937 20.0817 4.47849 20.4583C3.77761 20.8349 3.25504 21.4744 3.02573 22.2363C2.79643 22.9982 2.87918 23.82 3.25577 24.5209C3.63237 25.2218 4.27196 25.7443 5.03385 25.9736L8.89945 27.1371L10.249 34.9428C10.2728 35.0801 10.3344 35.208 10.4268 35.3123C10.5193 35.4166 10.6389 35.493 10.7724 35.5331L13.6451 36.3976C13.7513 36.4296 13.8633 36.4375 13.973 36.4209C14.0827 36.4043 14.1874 36.3636 14.2794 36.3017C14.3715 36.2398 14.4486 36.1582 14.5054 36.0629C14.5621 35.9675 14.597 35.8608 14.6075 35.7504L15.2464 29.0473L16.9458 29.5587L17.8021 31.1538C17.8488 31.2406 17.9121 31.3173 17.9884 31.3796C18.0648 31.4419 18.1526 31.4885 18.247 31.5168L21.1197 32.3814C21.2373 32.417 21.3619 32.4232 21.4825 32.3994C21.6031 32.3755 21.716 32.3224 21.8112 32.2447C21.9065 32.167 21.9812 32.0671 22.0287 31.9537C22.0763 31.8404 22.0952 31.7171 22.0839 31.5947L21.7541 27.8729L24.0833 24.9515C24.1603 24.8557 24.2125 24.7424 24.2354 24.6216C24.2583 24.5009 24.2512 24.3763 24.2147 24.2589C24.1782 24.1416 24.1133 24.035 24.0259 23.9486C23.9385 23.8621 23.8312 23.7985 23.7135 23.7633L20.8408 22.8987C20.7464 22.8702 20.6474 22.8606 20.5494 22.8704C20.4514 22.8802 20.3562 22.9092 20.2694 22.9558L18.675 23.8133L16.9756 23.3018L20.1425 17.3596C20.1947 17.2617 20.2245 17.1535 20.2298 17.0427C20.2351 16.9318 20.2158 16.8212 20.1732 16.7188C20.1306 16.6164 20.0658 16.5246 19.9835 16.4503C19.9012 16.3759 19.8034 16.3207 19.6972 16.2887L16.8245 15.4241C16.6911 15.3838 16.5492 15.3815 16.4145 15.4174C16.2799 15.4533 16.1579 15.5261 16.0623 15.6274ZM18.3888 17.4613L15.2219 23.4036C15.1697 23.5014 15.1398 23.6097 15.1345 23.7205C15.1292 23.8313 15.1485 23.9419 15.1911 24.0444C15.2337 24.1468 15.2985 24.2385 15.3808 24.3129C15.4631 24.3873 15.5609 24.4425 15.6671 24.4745L18.5398 25.3391C18.6341 25.3676 18.7331 25.3772 18.8312 25.3674C18.9292 25.3576 19.0243 25.3285 19.1111 25.2819L20.7056 24.4245L22.2201 24.8803L20.3943 27.17C20.2743 27.3205 20.2169 27.5115 20.2338 27.7032L20.4909 30.6257L18.9764 30.1699L18.1201 28.5748C18.0734 28.488 18.0101 28.4113 17.9338 28.349C17.8574 28.2868 17.7696 28.2401 17.6752 28.2118L14.8025 27.3472C14.6963 27.3153 14.5843 27.3074 14.4746 27.3239C14.3649 27.3405 14.2602 27.3813 14.1682 27.4432C14.0761 27.5051 13.999 27.5867 13.9422 27.682C13.8855 27.7773 13.8506 27.8841 13.8401 27.9945L13.2012 34.6976L11.6481 34.2302L10.2986 26.4244C10.2748 26.2871 10.2132 26.1592 10.1208 26.0549C10.0284 25.9507 9.90867 25.8742 9.77522 25.8342L5.46615 24.5373C5.08521 24.4226 4.76541 24.1613 4.57711 23.8109C4.38881 23.4605 4.34744 23.0496 4.46209 22.6686C4.57674 22.2877 4.83803 21.9679 5.18847 21.7796C5.53891 21.5913 5.9498 21.5499 6.33074 21.6646L10.6399 22.9615C10.7732 23.0017 10.9152 23.004 11.0498 22.9681C11.1845 22.9322 11.3064 22.8595 11.402 22.7581L16.8357 16.9939L18.3888 17.4613Z" fill="#3A3F51"/>
</svg>
