<svg width="1388" height="249" viewBox="0 0 1388 249" fill="none" xmlns="http://www.w3.org/2000/svg">
<g clip-path="url(#clip0_5561_23006)">
<path d="M1356 63.5377C1356 63.5377 1106.82 127.761 1060.71 45.9596C1030.5 -7.64021 1124.5 -19.1402 1138 45.9596C1159.6 150.143 878 191.86 679 174.86C591.679 167.4 478.519 162.242 366 177.416C306.876 185.39 150 296.86 -7 220.36" stroke="#6C7489" stroke-width="2" stroke-dasharray="4 4"/>
<path d="M1366.72 47.3469L1373.64 53.21L1377.89 51.3936C1378.72 51.0356 1379.67 51.0248 1380.51 51.3638C1381.36 51.7027 1382.04 52.3635 1382.39 53.2008C1382.75 54.0381 1382.76 54.9834 1382.42 55.8286C1382.08 56.6739 1381.42 57.3498 1380.59 57.7079L1376.34 59.5243L1375.8 68.5748C1375.79 68.734 1375.74 68.8874 1375.64 69.0178C1375.55 69.1481 1375.43 69.2504 1375.28 69.3129L1372.12 70.6628C1372 70.7127 1371.88 70.736 1371.75 70.7311C1371.62 70.7263 1371.5 70.6933 1371.39 70.6346C1371.28 70.5759 1371.18 70.493 1371.1 70.3918C1371.02 70.2906 1370.97 70.1737 1370.94 70.0494L1369.36 62.5067L1367.49 63.3053L1366.72 65.2288C1366.68 65.3334 1366.62 65.4288 1366.54 65.5094C1366.46 65.5899 1366.37 65.6542 1366.26 65.6984L1363.11 67.0483C1362.98 67.1039 1362.84 67.1268 1362.7 67.1151C1362.56 67.1033 1362.42 67.0573 1362.3 66.9811C1362.19 66.9048 1362.09 66.8007 1362.02 66.6778C1361.95 66.555 1361.91 66.4172 1361.91 66.2765L1361.81 62.0013L1358.79 58.9756C1358.69 58.8764 1358.62 58.7542 1358.57 58.6198C1358.53 58.4854 1358.52 58.3428 1358.55 58.2046C1358.58 58.0665 1358.64 57.937 1358.73 57.8275C1358.81 57.718 1358.93 57.632 1359.06 57.5769L1362.22 56.227C1362.32 56.1826 1362.43 56.159 1362.54 56.1577C1362.66 56.1563 1362.77 56.1772 1362.87 56.2191L1364.8 56.991L1366.66 56.1924L1362.3 49.8377C1362.23 49.733 1362.18 49.6137 1362.16 49.4884C1362.14 49.363 1362.15 49.2347 1362.19 49.1128C1362.22 48.9908 1362.28 48.8782 1362.37 48.7831C1362.45 48.688 1362.56 48.6128 1362.67 48.5628L1365.83 47.2129C1365.98 47.1501 1366.14 47.1294 1366.3 47.1531C1366.45 47.1767 1366.6 47.2439 1366.72 47.3469ZM1364.31 49.7297L1368.67 56.0844C1368.74 56.1891 1368.79 56.3084 1368.81 56.4338C1368.83 56.5591 1368.82 56.6874 1368.79 56.8093C1368.75 56.9313 1368.69 57.0439 1368.61 57.139C1368.52 57.2341 1368.42 57.3093 1368.3 57.3593L1365.14 58.7092C1365.04 58.7536 1364.93 58.7772 1364.82 58.7785C1364.7 58.7799 1364.59 58.759 1364.49 58.7171L1362.56 57.9452L1360.9 58.6568L1363.27 61.0283C1363.42 61.1842 1363.51 61.394 1363.52 61.6143L1363.6 64.9711L1365.26 64.2595L1366.03 62.336C1366.08 62.2313 1366.14 62.136 1366.22 62.0554C1366.3 61.9748 1366.39 61.9106 1366.49 61.8663L1369.65 60.5164C1369.77 60.4666 1369.89 60.4433 1370.02 60.4481C1370.15 60.453 1370.27 60.486 1370.38 60.5447C1370.5 60.6034 1370.6 60.6863 1370.67 60.7875C1370.75 60.8887 1370.8 61.0056 1370.83 61.1299L1372.41 68.6725L1374.12 67.9428L1374.66 58.8923C1374.67 58.7331 1374.72 58.5797 1374.81 58.4493C1374.9 58.3189 1375.03 58.2167 1375.18 58.1541L1379.91 56.1293C1380.33 55.9503 1380.66 55.6123 1380.83 55.1897C1381 54.7671 1380.99 54.2944 1380.81 53.8758C1380.64 53.4571 1380.3 53.1267 1379.88 52.9572C1379.45 52.7878 1378.98 52.7931 1378.56 52.9721L1373.83 54.997C1373.68 55.0598 1373.52 55.0805 1373.36 55.0568C1373.2 55.0332 1373.05 54.966 1372.93 54.8629L1366.02 48.9999L1364.31 49.7297Z" fill="#6C7489"/>
</g>
<defs>
<clipPath id="clip0_5561_23006">
<rect width="1388" height="249" fill="white"/>
</clipPath>
</defs>
</svg>
